<?xml version="1.0" encoding="UTF-8" standalone="no"?>
<!DOCTYPE svg PUBLIC "-//W3C//DTD SVG 1.1//EN" "http://www.w3.org/Graphics/SVG/1.1/DTD/svg11.dtd">
<svg xmlns="http://www.w3.org/2000/svg" version="1.1" viewBox="0.00 0.00 449.00 449.00">
<path fill="#ffffff" d="
  M 33.00 127.62
  Q 44.54 126.00 65.00 125.17
  Q 82.13 124.48 99.25 128.13
  Q 100.31 128.36 99.61 129.19
  Q 97.26 132.03 95.14 135.64
  Q 84.43 153.95 80.16 174.73
  Q 80.05 175.26 79.51 175.24
  C 61.61 174.60 47.82 175.95 32.11 178.02
  C 18.53 179.80 5.41 181.27 1.56 164.73
  C -1.46 151.80 5.03 138.50 16.57 132.33
  Q 17.01 132.10 17.01 131.61
  C 17.08 110.62 24.09 90.86 35.17 73.37
  A 1.91 1.91 0.0 0 0 34.32 70.60
  Q 29.97 68.71 25.14 69.06
  Q 24.53 69.11 24.10 68.67
  L 17.36 61.88
  A 1.26 1.25 22.7 0 1 16.99 60.99
  L 16.99 39.81
  Q 16.99 39.20 17.43 38.78
  L 34.52 22.29
  Q 34.83 22.00 35.25 22.00
  L 176.86 22.00
  A 0.37 0.34 -20.8 0 1 177.11 22.10
  L 182.70 27.70
  A 1.04 1.02 -67.9 0 1 183.00 28.43
  L 183.00 50.45
  Q 183.00 51.07 182.57 51.50
  L 165.46 68.68
  A 1.09 1.09 0.0 0 1 164.68 69.01
  Q 124.79 69.01 84.75 68.99
  Q 80.00 68.99 73.02 72.83
  C 55.23 82.62 33.00 105.33 32.59 127.25
  Q 32.58 127.68 33.00 127.62
  Z"
/>
<path fill="#ffffff" d="
  M 255.07 64.38
  A 0.60 0.60 0.0 0 0 254.52 64.98
  L 254.48 82.44
  A 0.28 0.28 0.0 0 1 254.09 82.70
  Q 240.56 76.77 225.91 74.76
  A 0.81 0.81 0.0 0 1 225.22 73.96
  L 225.24 23.50
  A 1.26 1.25 -0.0 0 1 226.50 22.25
  L 424.89 22.25
  A 1.12 1.12 0.0 0 1 425.96 23.70
  Q 424.46 28.60 422.35 34.04
  Q 412.70 58.90 402.94 83.71
  C 391.96 111.60 383.82 140.66 377.84 170.03
  Q 377.57 171.33 376.59 172.75
  Q 376.30 173.16 375.87 172.89
  Q 373.09 171.15 372.68 168.51
  C 369.06 145.04 363.22 119.47 352.43 97.56
  C 332.95 57.99 292.11 61.18 255.07 64.38
  Z"
/>
<path fill="#ffffff" d="
  M 415.72 106.91
  C 422.24 87.70 429.80 68.77 440.22 51.20
  Q 440.84 50.15 441.62 51.10
  C 443.28 53.12 448.42 58.94 447.00 61.82
  Q 435.65 84.72 427.17 108.85
  Q 410.73 155.64 398.76 203.77
  Q 398.39 205.27 397.34 207.06
  Q 397.07 207.52 396.70 207.13
  Q 391.56 201.86 390.43 199.75
  C 389.13 197.35 390.51 194.37 391.06 192.07
  Q 401.46 148.93 415.72 106.91
  Z"
/>
<path fill="#ffffff" d="
  M 348.24 122.26
  C 331.91 109.44 312.58 103.66 291.74 104.56
  Q 289.99 104.64 288.39 103.32
  Q 280.97 97.19 272.76 92.17
  Q 272.17 91.81 272.86 91.82
  C 289.52 91.88 305.87 91.46 322.50 94.71
  C 340.34 98.20 351.79 110.18 356.47 127.54
  Q 356.89 129.09 355.63 128.09
  Q 352.24 125.40 348.24 122.26
  Z"
/>
<path fill="#ffffff" d="
  M 285.59 270.50
  C 287.37 272.98 289.28 274.70 292.62 274.72
  Q 297.28 274.75 301.79 274.71
  A 2.19 2.19 0.0 0 1 303.36 275.35
  L 382.87 355.01
  Q 383.24 355.39 382.87 355.76
  L 359.37 379.26
  Q 358.99 379.64 358.60 379.26
  L 278.85 299.66
  Q 278.47 299.29 278.47 298.76
  L 278.47 286.90
  A 1.19 1.16 -67.5 0 0 278.14 286.08
  L 274.32 282.00
  Q 273.91 281.56 273.44 281.92
  C 255.79 295.49 239.15 303.78 216.73 306.01
  Q 173.92 310.27 140.36 284.50
  C 101.75 254.84 89.15 201.47 109.31 157.52
  C 128.37 115.97 171.80 91.74 217.35 96.95
  C 250.61 100.76 280.05 120.19 296.49 149.30
  C 318.03 187.42 314.34 235.65 285.63 269.56
  Q 285.24 270.01 285.59 270.50
  Z
  M 278.52 201.85
  A 73.08 73.08 0.0 0 0 205.44 128.77
  A 73.08 73.08 0.0 0 0 132.36 201.85
  A 73.08 73.08 0.0 0 0 205.44 274.93
  A 73.08 73.08 0.0 0 0 278.52 201.85
  Z"
/>
<path fill="#ffffff" d="
  M 246.02 226.04
  Q 239.09 237.98 225.40 245.62
  A 0.34 0.33 86.4 0 1 224.93 245.20
  L 225.12 244.69
  Q 225.23 244.41 225.23 244.11
  L 225.22 156.95
  Q 225.22 156.33 225.77 156.62
  C 251.13 170.22 260.66 200.82 246.02 226.04
  Z"
/>
<path fill="#ffffff" d="
  M 155.72 184.86
  Q 158.54 176.59 164.11 169.91
  Q 164.27 169.72 164.41 169.91
  C 181.71 193.07 190.75 221.09 193.64 249.58
  A 0.38 0.38 0.0 0 1 193.18 249.99
  C 163.91 243.25 145.84 213.89 155.72 184.86
  Z"
/>
<path fill="#ffffff" d="
  M 315.43 412.35
  Q 315.44 411.89 314.71 411.05
  Q 293.52 386.86 272.33 362.66
  Q 270.52 360.59 270.56 356.50
  Q 270.78 333.93 270.66 311.43
  Q 270.65 309.27 272.20 310.76
  L 279.40 317.66
  Q 280.95 319.15 281.00 321.30
  L 281.78 356.33
  Q 281.82 358.21 283.04 359.64
  Q 308.85 389.73 334.47 419.76
  Q 335.00 420.37 335.02 420.46
  Q 335.26 421.51 334.13 421.51
  L 226.27 421.52
  A 1.01 1.01 0.0 0 1 225.26 420.51
  L 225.26 414.29
  A 1.21 1.21 0.0 0 1 226.47 413.08
  L 314.65 413.10
  Q 315.41 413.10 315.43 412.35
  Z"
/>
<path fill="#ffffff" d="
  M 254.72 354.00
  C 254.75 356.08 254.95 356.56 256.24 357.75
  Q 274.41 374.60 293.32 392.23
  Q 294.38 393.23 292.96 393.55
  Q 291.34 393.93 288.75 393.92
  Q 257.51 393.80 226.51 393.75
  A 1.25 1.25 0.0 0 1 225.26 392.50
  L 225.26 327.52
  A 0.81 0.81 0.0 0 1 225.95 326.72
  Q 240.56 324.50 254.22 318.96
  A 0.19 0.19 0.0 0 1 254.48 319.13
  Q 254.53 336.52 254.72 354.00
  Z"
/>
<path fill="#ffffff" d="
  M 184.21 417.44
  Q 183.75 416.39 183.71 415.25
  L 180.65 326.35
  Q 180.62 325.66 181.29 325.84
  Q 187.53 327.48 194.00 327.63
  A 0.80 0.80 0.0 0 1 194.78 328.43
  Q 194.79 372.50 194.78 416.50
  C 194.78 419.06 190.39 422.65 187.28 421.49
  C 185.57 420.85 184.89 419.01 184.21 417.44
  Z"
/>
</svg>
