<?xml version="1.0" standalone="no"?>
<!DOCTYPE svg PUBLIC "-//W3C//DTD SVG 20010904//EN"
 "http://www.w3.org/TR/2001/REC-SVG-20010904/DTD/svg10.dtd">
<svg version="1.0" xmlns="http://www.w3.org/2000/svg"
 width="700.000000pt" height="700.000000pt" viewBox="0 0 700.000000 700.000000"
 preserveAspectRatio="xMidYMid meet">
<metadata>
Created by potrace 1.14, written by Peter Selinger 2001-2017
</metadata>
<g transform="translate(0.000000,700.000000) scale(0.100000,-0.100000)"
fill="#000000" stroke="none">
<path d="M405 6524 l-139 -133 -1 -173 -1 -173 57 -60 c54 -57 60 -60 108 -62
62 -3 121 -26 121 -49 0 -9 -15 -42 -34 -73 -83 -138 -181 -366 -200 -467 -2
-10 -9 -37 -14 -59 -6 -22 -14 -65 -17 -95 -4 -30 -9 -58 -11 -61 -1 -3 -4
-43 -6 -89 l-2 -82 -52 -39 c-133 -98 -204 -238 -199 -391 5 -132 58 -233 149
-281 55 -29 200 -31 391 -7 77 11 181 22 230 26 50 4 104 8 120 9 17 2 100 3
186 4 l157 1 17 73 c35 142 80 268 142 397 41 83 119 218 140 239 8 7 12 16 9
18 -7 7 -137 31 -219 40 -161 18 -575 6 -786 -22 l-44 -6 6 53 c10 100 37 178
103 295 123 221 417 480 619 548 58 20 84 20 700 19 l640 0 140 141 140 142
-2 178 -1 177 -47 48 -46 47 -1108 0 -1107 0 -139 -133z"/>
<path d="M3519 6644 c-5 -7 -8 -176 -7 -410 l3 -399 40 -6 c22 -4 58 -10 79
-14 57 -10 224 -61 280 -85 26 -11 49 -20 50 -20 2 0 4 62 5 138 1 75 5 140 9
144 4 3 48 9 97 13 50 3 119 8 155 11 93 8 353 7 430 0 201 -20 372 -74 505
-159 200 -127 330 -325 458 -693 39 -112 116 -393 132 -482 2 -15 7 -38 10
-52 8 -43 15 -82 32 -180 13 -78 20 -100 44 -124 l28 -29 10 24 c6 13 25 87
41 164 82 371 229 877 320 1100 7 17 22 57 34 90 30 81 305 786 315 805 19 40
54 160 48 166 -13 13 -3107 11 -3118 -2z"/>
<path d="M6846 6172 c-66 -106 -200 -391 -276 -592 -104 -274 -313 -933 -365
-1150 -2 -8 -18 -69 -35 -135 -18 -66 -36 -136 -40 -155 -4 -19 -17 -71 -29
-115 -27 -105 -26 -125 8 -168 39 -50 75 -87 83 -87 9 0 31 74 93 315 128 491
385 1287 491 1523 13 29 24 55 24 57 0 2 11 28 24 57 13 29 34 76 46 103 12
28 39 87 61 132 21 46 39 92 39 104 0 24 -49 106 -79 133 -19 17 -21 16 -45
-22z"/>
<path d="M4264 5558 c38 -27 183 -129 221 -157 38 -28 45 -30 175 -35 74 -3
153 -8 175 -11 75 -12 220 -52 270 -75 11 -5 46 -20 77 -34 71 -31 178 -99
286 -183 46 -36 85 -63 87 -61 8 8 -47 149 -81 209 -108 184 -266 284 -511
323 -141 23 -180 25 -463 31 -207 4 -252 3 -236 -7z"/>
<path d="M3059 5496 c-2 -2 -29 -6 -59 -10 -231 -23 -481 -113 -695 -250 -86
-55 -85 -54 -192 -145 -257 -218 -453 -557 -522 -899 -27 -135 -34 -200 -34
-327 3 -643 352 -1201 926 -1482 82 -40 229 -97 280 -108 12 -2 41 -9 65 -15
23 -5 59 -13 80 -16 20 -3 48 -8 62 -11 14 -2 99 -6 190 -8 365 -8 644 71 940
265 52 35 112 76 132 92 l38 29 35 -38 c33 -36 35 -42 36 -113 1 -41 0 -86 0
-100 -1 -20 111 -137 622 -648 343 -342 628 -622 633 -622 5 0 92 83 194 185
l185 185 -629 629 -628 628 -67 1 c-128 0 -130 1 -168 36 l-37 33 62 82 c138
183 237 395 288 616 16 70 18 87 33 203 8 67 7 317 -2 367 -3 17 -9 50 -13 75
-4 25 -8 47 -9 50 -1 3 -5 21 -9 40 -50 227 -170 479 -314 660 -178 224 -413
398 -677 503 -101 40 -254 83 -330 93 -27 3 -54 9 -59 11 -10 7 -351 14 -357
9z m341 -521 c233 -42 436 -149 606 -319 167 -167 273 -367 318 -601 15 -81
16 -327 1 -405 -44 -221 -162 -447 -316 -600 -64 -64 -172 -150 -187 -150 -6
0 -12 -4 -14 -8 -1 -4 -43 -29 -93 -54 -222 -114 -468 -148 -732 -103 -98 17
-284 87 -348 131 -20 13 -38 24 -42 24 -15 0 -176 136 -228 192 -246 268 -343
614 -279 998 20 117 96 296 181 422 56 84 182 212 268 274 150 106 335 182
490 200 28 4 52 8 55 11 10 9 251 0 320 -12z"/>
<path d="M3510 3864 l0 -695 38 21 c63 36 164 123 215 185 256 316 236 746
-48 1036 -51 52 -180 149 -199 149 -3 0 -6 -313 -6 -696z"/>
<path d="M2546 4335 c-33 -33 -96 -153 -121 -230 -89 -275 -22 -560 183 -777
86 -91 259 -192 373 -217 l38 -9 -5 47 c-29 291 -115 592 -244 856 -54 111
-173 312 -203 341 -2 3 -12 -2 -21 -11z"/>
<path d="M4220 1781 c0 -209 4 -390 9 -403 5 -13 33 -50 61 -83 29 -33 78 -89
109 -124 31 -36 94 -108 140 -160 46 -53 110 -125 141 -161 165 -189 215 -245
221 -250 3 -3 8 -13 12 -22 6 -17 -33 -18 -696 -20 l-702 -3 0 -60 0 -60 853
-3 c634 -1 852 1 852 9 0 7 -17 30 -37 53 -21 23 -57 64 -80 91 -23 28 -51 61
-63 75 -12 14 -40 47 -63 74 -23 27 -56 65 -73 85 -17 20 -91 106 -163 191
-73 85 -143 166 -154 180 -203 236 -190 216 -194 283 -3 61 -11 374 -12 490
l-1 59 -69 69 c-39 38 -75 69 -80 69 -8 0 -11 -118 -11 -379z"/>
<path d="M3835 1983 c-55 -18 -149 -44 -210 -56 l-110 -23 0 -520 0 -519 524
-3 c289 -1 529 2 533 6 5 5 -22 37 -60 73 -88 82 -320 299 -390 364 -30 28
-76 71 -103 97 l-49 46 0 286 c0 266 -1 286 -17 285 -10 -1 -63 -17 -118 -36z"/>
<path d="M2825 1683 c4 -131 8 -276 10 -323 2 -47 6 -166 9 -265 21 -598 21
-596 35 -623 17 -31 49 -51 74 -44 31 8 64 30 73 50 11 26 12 1402 1 1409 -6
3 -29 7 -51 9 -23 2 -57 6 -76 10 -19 3 -46 8 -58 10 l-24 5 7 -238z"/>
</g>
</svg>
